<svg id="Capa_1" enable-background="new 0 0 512 512" height="512" viewBox="0 0 512 512" width="512" xmlns="http://www.w3.org/2000/svg"><g><g><g><path d="m418.763 118.393v207.028c0 11.78-9.578 21.358-21.358 21.358h-282.81c-11.78 0-21.358-9.578-21.358-21.358v-207.028c0-11.772 9.578-21.358 21.358-21.358h282.81c11.779 0 21.358 9.586 21.358 21.358z" fill="#f9f6f9"/><path d="m315.976 406.6c0 2.81-.094 5.605-.273 8.368h-201.109c-11.78 0-21.358-9.578-21.358-21.358v-68.189c23.138-27.51 57.822-44.988 96.581-44.988 69.672 0 126.159 56.487 126.159 126.167z" fill="#95d6a4"/><path d="m144.649 406.6c0 2.81.094 5.605.281 8.368h-30.336c-11.78 0-21.358-9.578-21.358-21.358v-68.189c23.138-27.51 57.822-44.988 96.581-44.988 14.169 0 27.791 2.334 40.5 6.643-49.813 16.87-85.668 64.013-85.668 119.524z" fill="#78c2a4"/><path d="m418.763 337.529v56.081c0 11.78-9.578 21.358-21.358 21.358h-177.823c11.132-58.29 62.373-102.342 123.911-102.342 28.213 0 54.263 9.259 75.27 24.903z" fill="#95d6a4"/><path d="m377.748 317.342c-45.55 12.826-80.648 50.593-89.633 97.627h-68.532c11.132-58.29 62.373-102.342 123.911-102.342 11.873-.001 23.364 1.639 34.254 4.715z" fill="#78c2a4"/><circle cx="338.613" cy="192.117" fill="#ffe07d" r="47.506"/><path d="m356.408 236.177c-5.496 2.217-11.499 3.443-17.791 3.443-26.237 0-47.51-21.265-47.51-47.502s21.272-47.51 47.51-47.51c6.292 0 12.295 1.226 17.791 3.443-17.432 7.041-29.727 24.122-29.727 44.067s12.295 37.025 29.727 44.059z" fill="#ffd064"/></g><g fill="#9dc6fb"><path d="m482.981 152.902c-11.883 0-21.517-9.633-21.517-21.517v-80.848h-80.849c-11.883 0-21.517-9.633-21.517-21.517s9.633-21.517 21.517-21.517h102.365c11.883 0 21.517 9.633 21.517 21.517v102.365c.001 11.883-9.633 21.517-21.516 21.517z"/><path d="m131.383 504.5h-102.365c-11.883 0-21.517-9.633-21.517-21.517v-102.365c0-11.883 9.633-21.517 21.517-21.517s21.517 9.633 21.517 21.517v80.849h80.849c11.883 0 21.517 9.633 21.517 21.517-.002 11.883-9.635 21.516-21.518 21.516z"/><path d="m29.018 152.902c-11.883 0-21.517-9.633-21.517-21.517v-102.365c0-11.883 9.633-21.517 21.517-21.517h102.365c11.883 0 21.517 9.633 21.517 21.517s-9.633 21.517-21.517 21.517h-80.849v80.849c0 11.882-9.633 21.516-21.516 21.516z"/><path d="m482.981 504.5h-102.365c-11.883 0-21.517-9.633-21.517-21.517 0-11.883 9.633-21.517 21.517-21.517h80.849v-80.849c0-11.883 9.633-21.517 21.517-21.517 11.883 0 21.517 9.633 21.517 21.517v102.365c-.001 11.885-9.635 21.518-21.518 21.518z"/></g><g fill="#80b4fb"><path d="m381.708 29.02c0 11.88 9.64 21.51 21.52 21.51h-22.61c-11.89 0-21.52-9.63-21.52-21.51 0-11.89 9.63-21.52 21.52-21.52h22.61c-11.88 0-21.52 9.63-21.52 21.52z"/><path d="m494.288 149.689c-3.29 2.03-7.16 3.21-11.31 3.21-11.88 0-21.51-9.63-21.51-21.52v-80.849h22.61v80.85c0 7.739 4.08 14.519 10.21 18.309z"/><path d="m51.631 504.497h-22.61c-11.89 0-21.52-9.63-21.52-21.52v-102.36c0-11.89 9.63-21.52 21.52-21.52 4.15 0 8.02 1.18 11.31 3.22-6.13 3.77-10.22 10.56-10.22 18.3v102.36c0 11.889 9.64 21.52 21.52 21.52z"/><path d="m40.331 149.679c-3.29 2.04-7.16 3.22-11.31 3.22-11.89 0-21.52-9.63-21.52-21.52v-102.359c0-11.89 9.63-21.52 21.52-21.52h22.61c-11.88 0-21.52 9.63-21.52 21.52v102.359c0 7.74 4.09 14.53 10.22 18.3z"/><path d="m381.708 482.977c0 11.89 9.64 21.52 21.52 21.52h-22.61c-11.89 0-21.52-9.63-21.52-21.52 0-11.88 9.63-21.51 21.52-21.51h22.61c-11.88 0-21.52 9.63-21.52 21.51z"/><path d="m494.288 362.307c-6.13 3.79-10.21 10.57-10.21 18.31v80.85h-22.61v-80.85c0-11.89 9.63-21.52 21.51-21.52 4.15 0 8.02 1.18 11.31 3.21z"/></g></g><g><path d="m397.409 407.47h-237.48c-4.142 0-7.5 3.358-7.5 7.5s3.358 7.5 7.5 7.5h237.48c15.908 0 28.85-12.947 28.85-28.86v-275.22c0-15.914-12.942-28.86-28.85-28.86h-282.82c-15.908 0-28.85 12.947-28.85 28.86v275.22c0 15.914 12.942 28.86 28.85 28.86h15.34c4.142 0 7.5-3.358 7.5-7.5s-3.358-7.5-7.5-7.5h-15.34c-7.637 0-13.85-6.218-13.85-13.86v-65.401c22.557-25.628 54.865-40.276 89.077-40.276 32.333 0 62.895 13.048 85.189 36.076-14.579 8.732-27.545 20.277-37.86 33.805-2.512 3.294-1.877 8 1.416 10.511 1.358 1.036 2.956 1.537 4.542 1.537 2.26 0 4.494-1.018 5.969-2.953 10.911-14.309 25.15-26.133 41.179-34.195 16.607-8.353 34.52-12.588 53.242-12.588 24.492 0 47.836 7.347 67.766 21.257v52.226c0 7.643-6.213 13.861-13.85 13.861zm-53.916-102.344c-19.112 0-37.478 3.936-54.688 11.682-25.332-27.951-61.077-43.876-98.988-43.876-33.158 0-64.726 12.215-89.077 34.01v-188.552c0-7.643 6.213-13.86 13.85-13.86h282.82c7.637 0 13.85 6.218 13.85 13.86v205.178c-20.463-12.09-43.619-18.442-67.767-18.442z"/><path d="m338.614 137.111c-30.331 0-55.006 24.675-55.006 55.006s24.676 55.006 55.006 55.006 55.006-24.675 55.006-55.006-24.676-55.006-55.006-55.006zm0 95.012c-22.06 0-40.006-17.947-40.006-40.006s17.947-40.006 40.006-40.006 40.006 17.947 40.006 40.006-17.947 40.006-40.006 40.006z"/><path d="m482.979 0h-102.36c-16.001 0-29.02 13.019-29.02 29.02s13.019 29.02 29.02 29.02h24.1c4.142 0 7.5-3.358 7.5-7.5s-3.358-7.5-7.5-7.5h-24.1c-7.73 0-14.02-6.29-14.02-14.02s6.29-14.02 14.02-14.02h102.36c7.73 0 14.02 6.29 14.02 14.02v102.37c0 7.725-6.29 14.01-14.02 14.01-7.725 0-14.01-6.285-14.01-14.01v-80.85c0-4.142-3.358-7.5-7.5-7.5h-26.79c-4.142 0-7.5 3.358-7.5 7.5s3.358 7.5 7.5 7.5h19.29v73.35c0 15.996 13.014 29.01 29.01 29.01 16.001 0 29.02-13.014 29.02-29.01v-102.37c0-16.001-13.018-29.02-29.02-29.02z"/><path d="m131.383 453.967h-73.349v-73.349c0-16-13.017-29.017-29.017-29.017s-29.016 13.017-29.016 29.017v102.365c0 16 13.017 29.017 29.017 29.017h102.366c16 0 29.017-13.017 29.017-29.017s-13.018-29.016-29.018-29.016zm0 43.033h-102.366c-7.729 0-14.017-6.288-14.017-14.017v-102.365c0-7.729 6.288-14.017 14.017-14.017s14.017 6.288 14.017 14.017v80.849c0 4.142 3.358 7.5 7.5 7.5h80.849c7.729 0 14.017 6.288 14.017 14.017s-6.288 14.016-14.017 14.016z"/><path d="m29.017 160.402c16 0 29.017-13.017 29.017-29.017v-73.348h73.349c16 0 29.017-13.017 29.017-29.017s-13.017-29.017-29.017-29.017h-102.366c-16 0-29.017 13.017-29.017 29.017v102.365c.001 16 13.017 29.017 29.017 29.017zm-14.016-131.382c0-7.729 6.288-14.017 14.017-14.017h102.366c7.729 0 14.017 6.288 14.017 14.017s-6.288 14.017-14.017 14.017h-80.85c-4.142 0-7.5 3.358-7.5 7.5v80.849c0 7.729-6.288 14.017-14.017 14.017s-14.017-6.288-14.017-14.017v-102.366z"/><path d="m482.981 351.602c-16 0-29.017 13.017-29.017 29.017v73.349h-73.349c-16 0-29.017 13.017-29.017 29.017s13.017 29.015 29.017 29.015h102.366c16 0 29.017-13.017 29.017-29.017v-102.365c0-16-13.017-29.016-29.017-29.016zm14.017 131.381c0 7.729-6.288 14.017-14.017 14.017h-102.366c-7.729 0-14.017-6.288-14.017-14.017s6.288-14.017 14.017-14.017h80.849c4.142 0 7.5-3.358 7.5-7.5v-80.849c0-7.729 6.288-14.017 14.017-14.017s14.017 6.288 14.017 14.017z"/></g></g></svg>